<svg version="1.1" xmlns="http://www.w3.org/2000/svg" viewBox="-267.2 -1711.2625 10474.223988521791 2861.025"><desc>Created with Snap</desc><defs></defs><g><rect x="-267.2" y="-1711.2625" width="10474.223988521791" height="2861.025" fill="#0a2463" style=""></rect><g transform="matrix(24.9903,0,0,24.9903,7525.7487,-1529.0138)"><g><path d="M78.4,66.5c-5.5,4.8-9.9,15.2-9.9,15.2s-6.9-11.4-12.9-15.3c-9.5-6.1-13.6-6.2-13.6-6.2V65c0,0,7.8,1.2,11.7,4.6   c8.2,7.1,14.8,18.5,14.8,18.5S74.4,75,80.1,70.5C88.1,64.3,95,65,95,65v-4.8C95,60.1,85.1,60.7,78.4,66.5z" fill="#ffffff" style=""></path><path d="M42,80c-6.4-3.6-17.8-4.3-17.8-4.3s8.7-10.1,10.5-17C37.5,47.9,36.2,44,36.2,44l-4.6,1.6c0,0,1.3,7.7-0.6,12.4   c-4.1,9.9-13,19.8-13,19.8s14.6,1.3,20.7,5.1c8.6,5.4,10.2,12,10.2,12l4.6-1.6C53.5,93.4,49.7,84.4,42,80z" fill="#ffffff" style=""></path><path d="M35.3,36.8c11.3-0.9,14.6-3.4,14.6-3.4l-3-3.8c0,0-6.9,3.7-12.1,3.4c-10.9-0.6-23.3-5.6-23.3-5.6s3.5,14,1.8,20.9   C10.9,58.2,5,61.8,5,61.8l3,3.8c0,0,7.5-6.5,9.1-15.1c1.3-7.1-1.7-18-1.7-18S28,37.4,35.3,36.8z" fill="#ffffff" style=""></path><path d="M37.4,17.8c7.3-1.1,16.7-7.4,16.7-7.4s-0.6,13.2,2.4,19.8c4.6,10.2,8,12.5,8,12.5l2.7-4c0,0-5.9-5.2-7.3-10.2   C56.9,18.2,57.7,5,57.7,5s-12.3,7.8-19.5,8.5c-10.2,1-15.6-3.3-15.6-3.3l-2.7,4.1C19.9,14.2,28.6,19.1,37.4,17.8z" fill="#ffffff" style=""></path><path d="M65,60.5c0,0,3.1-7.2,7.4-10.1c9-6.1,21.9-9.7,21.9-9.7s-11.5-8.9-14.5-15.4c-4.2-9.1-1.9-15.6-1.9-15.6l-4.8-1.2   c0,0-1.9,9.6,2.2,17.4c3.4,6.4,12.5,13.2,12.5,13.2S75,42.9,69.6,47.8c-8.3,7.6-9.4,11.5-9.4,11.5L65,60.5z" fill="#ffffff" style=""></path></g><desc>Created with Snap</desc><defs></defs></g><g><g transform="matrix(0.5,0,0,-0.5,0,0)"><path d="M739 -21Q520 -21 373 75Q227 171 153 338Q80 505 80 717L80 738Q80 952 157 1118Q234 1285 378 1381Q522 1477 722 1477Q863 1477 980 1433Q1097 1389 1174 1321L1174 1007L1017 1007L996 1237Q964 1262 922 1279Q881 1296 830 1305Q780 1314 721 1314Q578 1314 479 1240Q380 1167 329 1038Q278 909 278 740L278 717Q278 534 332 404Q387 275 491 207Q596 139 746 139Q816 139 883 156Q950 173 994 200L1016 403L1170 403L1170 87Q1088 36 974 7Q860 -21 739 -21ZM1885 0L1362 0L1362 126L1525 154L1525 927L1362 955L1362 1082L1701 1082L1718 944L1720 925Q1766 1008 1833 1055Q1901 1102 1988 1102Q2019 1102 2051 1096Q2084 1091 2098 1086L2072 903L1935 911Q1857 916 1804 875Q1751 835 1722 767L1722 154L1885 126L1885 0ZM2453 -437Q2430 -437 2393 -432Q2356 -426 2336 -421L2356 -266Q2373 -268 2403 -270Q2433 -271 2444 -271Q2507 -271 2546 -223Q2586 -175 2620 -92L2667 22L2284 939L2168 955L2168 1082L2622 1082L2622 955L2491 935L2702 394L2753 253L2759 253L3009 935L2871 955L2871 1082L3316 1082L3316 955L3204 939L2778 -166Q2748 -244 2705 -306Q2663 -367 2601 -402Q2540 -437 2453 -437ZM3902 -416L3380 -416L3380 -289L3533 -261L3533 927L3370 955L3370 1082L3702 1082L3720 950Q3774 1024 3851 1063Q3929 1102 4031 1102Q4165 1102 4260 1029Q4355 957 4405 826Q4455 696 4455 521L4455 500Q4455 344 4404 227Q4354 110 4260 44Q4166 -21 4034 -21Q3934 -21 3858 12Q3783 46 3730 112L3730 -261L3902 -289L3902 -416ZM3973 133Q4113 133 4185 235Q4257 337 4257 500L4257 521Q4257 645 4225 739Q4193 834 4129 888Q4066 942 3971 942Q3887 942 3827 904Q3767 866 3730 800L3730 273Q3767 206 3826 169Q3886 133 3973 133ZM4989 -17Q4869 -17 4798 53Q4728 124 4728 279L4728 936L4557 936L4557 1082L4728 1082L4728 1343L4925 1343L4925 1082L5160 1082L5160 936L4925 936L4925 279Q4925 201 4956 164Q4987 127 5039 127Q5074 127 5117 133Q5160 140 5184 145L5211 16Q5168 3 5105 -7Q5043 -17 4989 -17ZM5826 -21Q5676 -21 5567 49Q5459 120 5400 244Q5341 369 5341 529L5341 551Q5341 711 5400 835Q5459 960 5567 1031Q5676 1102 5824 1102Q5974 1102 6082 1031Q6191 960 6250 836Q6309 712 6309 551L6309 529Q6309 368 6250 243Q6191 119 6083 49Q5975 -21 5826 -21ZM5826 133Q5920 133 5983 184Q6047 236 6079 325Q6112 415 6112 529L6112 551Q6112 665 6079 754Q6047 844 5983 895Q5919 947 5824 947Q5730 947 5666 895Q5602 844 5570 754Q5538 665 5538 551L5538 529Q5538 415 5570 325Q5602 236 5666 184Q5731 133 5826 133ZM7651 -21Q7501 -21 7383 38Q7265 97 7197 206Q7129 316 7129 469L7129 1301L6966 1329L6966 1456L7489 1456L7489 1329L7326 1301L7326 469Q7326 360 7367 286Q7409 212 7483 174Q7557 137 7654 137Q7752 137 7827 174Q7903 211 7945 285Q7988 359 7988 469L7988 1301L7825 1329L7825 1456L8348 1456L8348 1329L8185 1301L8185 469Q8185 311 8118 201Q8052 92 7932 35Q7812 -21 7651 -21ZM8984 -416L8462 -416L8462 -289L8615 -261L8615 927L8452 955L8452 1082L8784 1082L8802 950Q8856 1024 8933 1063Q9011 1102 9113 1102Q9247 1102 9342 1029Q9437 957 9487 826Q9537 696 9537 521L9537 500Q9537 344 9486 227Q9436 110 9342 44Q9248 -21 9116 -21Q9016 -21 8940 12Q8865 46 8812 112L8812 -261L8984 -289L8984 -416ZM9055 133Q9195 133 9267 235Q9339 337 9339 500L9339 521Q9339 645 9307 739Q9275 834 9211 888Q9148 942 9053 942Q8969 942 8909 904Q8849 866 8812 800L8812 273Q8849 206 8908 169Q8968 133 9055 133ZM10114 -21Q9982 -21 9887 44Q9793 110 9743 227Q9693 344 9693 500L9693 521Q9693 695 9743 826Q9793 957 9888 1029Q9983 1102 10116 1102Q10212 1102 10285 1066Q10359 1031 10411 964L10411 1405L10248 1433L10248 1560L10411 1560L10608 1560L10608 154L10771 126L10771 0L10437 0L10421 129Q10368 55 10291 17Q10215 -21 10114 -21ZM10164 139Q10252 139 10312 179Q10372 219 10411 292L10411 794Q10373 862 10312 902Q10251 942 10166 942Q10072 942 10011 888Q9950 835 9920 740Q9890 646 9890 521L9890 500Q9890 337 9957 238Q10024 139 10164 139ZM11257 -21Q11088 -21 11000 61Q10912 144 10912 294Q10912 397 10968 473Q11025 550 11132 592Q11239 635 11388 635L11581 635L11581 741Q11581 839 11521 893Q11462 947 11354 947Q11286 947 11236 930Q11186 914 11145 885L11124 734L10972 734L10972 982Q11045 1041 11142 1071Q11239 1102 11357 1102Q11554 1102 11666 1008Q11778 914 11778 739L11778 218Q11778 197 11778 177Q11779 157 11781 137L11886 126L11886 0L11603 0Q11594 44 11589 79Q11584 114 11582 149Q11525 76 11439 27Q11354 -21 11257 -21ZM11286 144Q11384 144 11465 191Q11546 238 11581 304L11581 500L11381 500Q11245 500 11177 435Q11109 370 11109 290Q11109 219 11153 181Q11197 144 11286 144ZM12421 -17Q12301 -17 12230 53Q12160 124 12160 279L12160 936L11989 936L11989 1082L12160 1082L12160 1343L12357 1343L12357 1082L12592 1082L12592 936L12357 936L12357 279Q12357 201 12388 164Q12419 127 12471 127Q12506 127 12549 133Q12592 140 12616 145L12643 16Q12600 3 12537 -7Q12475 -17 12421 -17ZM13262 -21Q13112 -21 13001 47Q12890 116 12829 238Q12769 360 12769 520L12769 564Q12769 718 12832 839Q12896 961 13001 1031Q13107 1102 13232 1102Q13378 1102 13476 1042Q13575 982 13625 873Q13675 765 13675 618L13675 495L12973 495L12970 490Q12972 386 13006 305Q13041 225 13106 179Q13171 133 13262 133Q13362 133 13437 161Q13513 190 13568 240L13645 112Q13587 56 13491 17Q13396 -21 13262 -21ZM12977 654L12979 649L13478 649L13478 675Q13478 753 13450 814Q13423 876 13368 911Q13314 947 13232 947Q13166 947 13112 908Q13058 870 13023 804Q12988 738 12977 654ZM14266 -21Q14157 -21 14062 1Q13967 23 13860 69L13858 326L14007 326L14044 171Q14100 148 14152 137Q14205 127 14266 127Q14386 127 14438 173Q14490 219 14490 287Q14490 351 14437 395Q14385 440 14247 471Q14051 516 13958 591Q13866 667 13866 793Q13866 881 13917 950Q13968 1020 14059 1061Q14150 1102 14271 1102Q14394 1102 14481 1074Q14569 1046 14634 999L14644 752L14496 752L14464 896Q14429 922 14381 936Q14333 950 14271 950Q14179 950 14121 907Q14064 864 14064 799Q14064 761 14080 733Q14097 705 14144 682Q14191 660 14282 638Q14508 585 14597 503Q14687 421 14687 301Q14687 164 14585 71Q14484 -21 14266 -21Z" fill="#ffffff" style=""></path></g></g></g></svg>